<?xml version="1.0" standalone="no"?>
<!DOCTYPE svg PUBLIC "-//W3C//DTD SVG 20010904//EN"
 "http://www.w3.org/TR/2001/REC-SVG-20010904/DTD/svg10.dtd">
<svg version="1.0" xmlns="http://www.w3.org/2000/svg"
 width="512.000000pt" height="512.000000pt" viewBox="0 0 512.000000 512.000000"
 preserveAspectRatio="xMidYMid meet">
<metadata>
Created by potrace 1.14, written by Peter Selinger 2001-2017
</metadata>
<g transform="translate(0.000000,512.000000) scale(0.100000,-0.100000)"
fill="#000000" stroke="none">
<path d="M2678 4952 c-157 -92 -287 -171 -288 -177 -2 -5 10 -17 26 -26 16 -9
124 -71 239 -139 116 -67 224 -130 240 -140 17 -9 145 -84 285 -165 140 -82
362 -210 493 -287 l239 -138 46 28 c26 15 59 34 74 42 14 8 127 73 250 145
l225 129 -34 23 c-19 13 -35 23 -37 23 -2 0 -131 75 -287 166 -156 91 -302
176 -324 188 -22 13 -166 96 -320 186 -371 216 -535 310 -538 309 -1 0 -131
-75 -289 -167z"/>
<path d="M2237 4603 c-13 -42 -99 -289 -221 -642 -20 -57 -36 -110 -36 -117 0
-6 17 -22 38 -34 40 -25 40 -24 217 -127 166 -96 609 -354 669 -390 49 -28 76
-64 155 -204 121 -214 327 -556 332 -551 4 4 19 43 34 87 39 116 210 612 304
884 45 129 81 237 81 240 0 3 -28 22 -63 42 -204 118 -809 470 -1085 631 -178
103 -326 188 -330 188 -4 0 -18 9 -32 20 -37 29 -45 25 -63 -27z"/>
<path d="M1185 4091 c-9 -8 -169 -101 -462 -269 -62 -35 -113 -67 -113 -71 0
-3 17 -15 38 -26 20 -11 109 -62 197 -113 88 -52 176 -103 195 -113 19 -11 49
-28 65 -38 32 -19 566 -330 625 -363 19 -11 120 -70 223 -130 l189 -109 291
168 c259 150 323 193 288 193 -6 0 -48 22 -93 49 -119 70 -685 399 -738 429
-24 14 -84 49 -133 78 -49 30 -91 54 -92 54 -2 0 -77 43 -318 184 -82 47 -149
86 -151 86 -1 0 -6 -4 -11 -9z"/>
<path d="M4505 4039 c-39 -22 -88 -51 -110 -64 -22 -12 -125 -72 -229 -132
l-190 -110 -27 -79 c-15 -43 -62 -178 -104 -299 -42 -121 -85 -245 -95 -275
-10 -30 -59 -174 -110 -320 -51 -146 -107 -311 -126 -366 -36 -106 -53 -131
-95 -138 -37 -6 -72 21 -103 77 -23 42 -96 167 -156 267 -5 8 -71 122 -147
252 -76 131 -142 238 -147 238 -5 0 -27 -11 -50 -26 -23 -14 -165 -96 -316
-183 l-275 -158 0 -1184 c0 -651 2 -1264 5 -1361 l5 -176 100 59 c55 32 107
63 115 67 193 111 357 206 366 213 7 6 10 181 9 566 -1 307 2 569 7 582 17 46
65 64 109 40 15 -7 192 -237 284 -367 2 -2 74 38 161 88 171 98 168 95 213
214 62 166 242 608 256 629 9 14 24 27 33 29 29 8 81 -12 94 -35 9 -16 12
-152 13 -535 1 -282 5 -515 8 -518 5 -6 176 90 512 286 l80 47 -2 829 c-1 456
-2 1066 -2 1357 -1 290 -4 527 -9 527 -4 0 -39 -18 -77 -41z"/>
<path d="M526 2773 c2 -461 3 -1072 4 -1358 l0 -520 52 -30 c105 -61 136 -79
284 -165 83 -49 169 -99 190 -111 21 -12 118 -68 214 -124 96 -56 192 -112
213 -124 70 -40 102 -58 157 -91 30 -18 73 -43 95 -55 22 -13 106 -61 187
-108 l147 -86 -5 1356 c-2 745 -6 1358 -9 1363 -3 4 -51 34 -107 66 -56 33
-120 70 -142 83 -23 13 -57 33 -76 44 -19 11 -114 65 -210 122 -96 56 -240
140 -320 186 -80 46 -153 89 -162 94 -29 17 -201 117 -233 135 -16 10 -86 50
-153 89 -68 39 -125 71 -126 71 -1 0 -1 -377 0 -837z"/>
<path d="M3764 1448 c-37 -95 -76 -185 -87 -201 -10 -15 -37 -37 -59 -48 -31
-16 -38 -23 -27 -30 34 -22 236 -139 241 -139 2 0 5 133 4 295 0 162 -1 295
-2 295 -1 0 -33 -78 -70 -172z"/>
</g>
</svg>
